<svg width="208" height="14" viewBox="0 0 208 14" fill="none" xmlns="http://www.w3.org/2000/svg">
<path d="M4 5H6L5.75 7H4V13H1.40625V7H0V5H1.40625V3.65625C1.40625 2.78125 1.625 2.125 2.0625 1.6875C2.5 1.22917 3.22917 1 4.25 1H6V3H4.9375C4.54167 3 4.28125 3.0625 4.15625 3.1875C4.05208 3.3125 4 3.52083 4 3.8125V5Z" fill="#FBA820"/>
<path d="M56.99 2.4375C56.615 3.02083 56.115 3.54167 55.49 4V4.375C55.49 6.5625 54.6983 8.55208 53.115 10.3438C51.5525 12.1146 49.4692 13 46.865 13C45.1983 13 43.6567 12.5417 42.24 11.625C42.5733 11.6667 42.8129 11.6875 42.9588 11.6875C44.3546 11.6875 45.6046 11.25 46.7088 10.375C46.0629 10.3542 45.4796 10.1562 44.9588 9.78125C44.4379 9.38542 44.0838 8.88542 43.8963 8.28125C44.1463 8.32292 44.3338 8.34375 44.4588 8.34375C44.6671 8.34375 44.9379 8.30208 45.2713 8.21875C44.5838 8.07292 44.0004 7.72917 43.5213 7.1875C43.0629 6.625 42.8338 5.97917 42.8338 5.25V5.21875C43.2921 5.46875 43.7504 5.59375 44.2088 5.59375C43.3129 5.01042 42.865 4.16667 42.865 3.0625C42.865 2.54167 43.0004 2.04167 43.2713 1.5625C44.8754 3.54167 46.9483 4.59375 49.49 4.71875C49.4483 4.57292 49.4275 4.34375 49.4275 4.03125C49.4275 3.17708 49.7192 2.45833 50.3025 1.875C50.8858 1.29167 51.6046 1 52.4588 1C53.3129 1 54.0421 1.32292 54.6463 1.96875C55.2713 1.86458 55.9171 1.61458 56.5838 1.21875C56.3754 1.94792 55.9275 2.51042 55.24 2.90625C55.8858 2.84375 56.4692 2.6875 56.99 2.4375ZM105.23 2.5V11.5312C105.23 11.9271 105.084 12.2708 104.793 12.5625C104.501 12.8542 104.147 13 103.73 13H94.73C94.3133 13 93.9592 12.8542 93.6675 12.5625C93.3758 12.2708 93.23 11.9271 93.23 11.5312V2.5C93.23 2.08333 93.3758 1.72917 93.6675 1.4375C93.9592 1.14583 94.3133 1 94.73 1H103.73C104.147 1 104.501 1.14583 104.793 1.4375C105.084 1.72917 105.23 2.08333 105.23 2.5ZM100.98 5.25C100.501 4.75 99.9175 4.5 99.23 4.5C98.5425 4.5 97.9488 4.75 97.4488 5.25C96.9696 5.72917 96.73 6.3125 96.73 7C96.73 7.6875 96.9696 8.28125 97.4488 8.78125C97.9488 9.26042 98.5425 9.5 99.23 9.5C99.9175 9.5 100.501 9.26042 100.98 8.78125C101.48 8.28125 101.73 7.6875 101.73 7C101.73 6.3125 101.48 5.72917 100.98 5.25ZM104.23 4V2.5C104.23 2.16667 104.063 2 103.73 2H102.23C101.897 2 101.73 2.16667 101.73 2.5V4C101.73 4.33333 101.897 4.5 102.23 4.5H103.73C104.063 4.5 104.23 4.33333 104.23 4ZM103.761 12C104.074 12 104.23 11.8333 104.23 11.5V6H102.605C102.688 6.27083 102.73 6.60417 102.73 7C102.73 7.97917 102.397 8.80208 101.73 9.46875C101.043 10.1562 100.209 10.5 99.23 10.5C98.2717 10.5 97.4488 10.1562 96.7613 9.46875C96.0738 8.78125 95.73 7.95833 95.73 7C95.73 6.6875 95.7821 6.35417 95.8863 6H94.23V11.5C94.23 11.6458 94.2821 11.7708 94.3863 11.875C94.4904 11.9583 94.6154 12 94.7613 12H103.761ZM143.501 2.0625C144.876 0.6875 146.533 0 148.47 0C150.408 0 152.053 0.6875 153.408 2.0625C154.783 3.41667 155.47 5.0625 155.47 7C155.47 8.9375 154.783 10.5938 153.408 11.9688C152.053 13.3229 150.408 14 148.47 14C147.762 14 147.095 13.9062 146.47 13.7188C146.845 13.0521 147.085 12.5521 147.189 12.2188L147.689 10.2812C148.001 10.8646 148.564 11.1562 149.376 11.1562C150.501 11.1562 151.408 10.7083 152.095 9.8125C152.803 8.91667 153.158 7.77083 153.158 6.375C153.158 5.29167 152.741 4.35417 151.908 3.5625C151.074 2.75 150.012 2.34375 148.72 2.34375C147.178 2.34375 145.96 2.80208 145.064 3.71875C144.168 4.61458 143.72 5.61458 143.72 6.71875C143.72 8.11458 144.199 9.01042 145.158 9.40625C145.345 9.48958 145.47 9.42708 145.533 9.21875C145.533 9.17708 145.543 9.08333 145.564 8.9375C145.605 8.79167 145.637 8.69792 145.658 8.65625C145.699 8.53125 145.668 8.40625 145.564 8.28125C145.251 7.90625 145.095 7.44792 145.095 6.90625C145.095 5.98958 145.408 5.20833 146.033 4.5625C146.678 3.89583 147.512 3.5625 148.533 3.5625C149.449 3.5625 150.168 3.8125 150.689 4.3125C151.21 4.79167 151.47 5.42708 151.47 6.21875C151.47 7.26042 151.262 8.14583 150.845 8.875C150.428 9.58333 149.897 9.9375 149.251 9.9375C148.876 9.9375 148.574 9.8125 148.345 9.5625C148.116 9.29167 148.043 8.96875 148.126 8.59375C148.168 8.38542 148.241 8.10417 148.345 7.75C148.47 7.39583 148.564 7.08333 148.626 6.8125C148.71 6.54167 148.751 6.3125 148.751 6.125C148.751 5.83333 148.668 5.58333 148.501 5.375C148.335 5.16667 148.105 5.0625 147.814 5.0625C147.439 5.0625 147.116 5.23958 146.845 5.59375C146.595 5.92708 146.47 6.35417 146.47 6.875C146.47 7.0625 146.491 7.25 146.533 7.4375C146.574 7.625 146.616 7.77083 146.658 7.875L146.689 8C146.168 10.1667 145.866 11.4375 145.783 11.8125C145.658 12.3125 145.616 12.8438 145.658 13.4062C144.408 12.8438 143.397 11.9896 142.626 10.8438C141.855 9.69792 141.47 8.41667 141.47 7C141.47 5.0625 142.147 3.41667 143.501 2.0625ZM207.616 3.65625C207.679 4.78125 207.71 5.89583 207.71 7C207.71 8.10417 207.679 9.21875 207.616 10.3438C207.616 11.0521 207.387 11.6562 206.929 12.1562C206.491 12.6354 205.95 12.875 205.304 12.875C203.7 12.9583 201.835 13 199.71 13C197.585 13 195.72 12.9583 194.116 12.875C193.47 12.875 192.918 12.6354 192.46 12.1562C192.023 11.6562 191.804 11.0521 191.804 10.3438C191.741 9.21875 191.71 8.10417 191.71 7C191.71 6.27083 191.752 5.15625 191.835 3.65625C191.835 2.94792 192.054 2.35417 192.491 1.875C192.929 1.375 193.47 1.125 194.116 1.125C195.637 1.04167 197.408 1 199.429 1H199.71H199.991C202.012 1 203.783 1.04167 205.304 1.125C205.95 1.125 206.491 1.375 206.929 1.875C207.387 2.35417 207.616 2.94792 207.616 3.65625ZM198.179 10.0625L202.71 7L198.179 3.90625V10.0625Z" fill="white"/>
</svg>
